<svg width="45" height="40" viewBox="0 0 45 40" fill="none" xmlns="http://www.w3.org/2000/svg">
<path d="M45 18.3137C45 16.9064 43.6902 15.7594 42.0511 15.7594H17.6077L27.9791 6.77623C29.1244 5.78429 29.1244 4.16615 27.9791 3.15565L25.1949 0.743955C24.0497 -0.247985 22.1815 -0.247985 21.0148 0.743955L0.866027 18.1959C0.293416 18.6918 0 19.3428 0 20C0 20.6509 0.293416 21.3082 0.866027 21.8041L21.0148 39.2561C22.16 40.248 24.0282 40.248 25.1949 39.2561L27.9791 36.8444C29.1244 35.8525 29.1244 34.2343 27.9791 33.2238L17.6077 24.2716H42.0366C43.6615 24.2716 44.9857 23.1246 44.9857 21.7172L45 18.3137Z" fill="white"/>
</svg>
