<svg width="29" height="29" viewBox="0 0 29 29" fill="none" xmlns="http://www.w3.org/2000/svg">
<path d="M26.278 8.85758C26.3167 8.82372 26.3549 8.7888 26.3917 8.75191L27.9277 7.21596C28.8365 6.3071 28.8365 4.83352 27.9277 3.92467L25.0752 1.07217C24.1663 0.16332 22.6927 0.16332 21.784 1.07217L20.248 2.60812C20.2111 2.64502 20.1762 2.68318 20.1423 2.72191L26.278 8.85758Z" fill="white"/>
<path d="M4.50471 24.4953L7.53822 27.5289L3.96439 28.0691L0.390625 28.6094L0.930873 25.0355L1.47112 21.4618L4.50471 24.4953Z" fill="white"/>
<path d="M21.071 5.29609L4.83383 21.5331L3.95615 20.6554L20.1932 4.41841L19.3155 3.54074L2.20081 20.6554L8.34459 26.7992L25.4593 9.68446L21.071 5.29609Z" fill="white"/>
</svg>
