<svg width="26" height="26" viewBox="0 0 26 26" fill="none" xmlns="http://www.w3.org/2000/svg">
<path d="M26 13.0003C26 14.257 24.9815 15.2754 23.7241 15.2754H15.2749V23.7249C15.2749 24.9819 14.2561 26.0003 12.9995 26C12.3711 26 11.8024 25.7457 11.391 25.3342C10.9791 24.922 10.7245 24.3535 10.7248 23.7255L10.7245 15.2751H2.27416C1.64617 15.2751 1.07784 15.0208 0.665633 14.6086C0.254445 14.1974 8.49225e-08 13.6287 8.49225e-08 13.0003C-0.000339553 11.7439 1.01812 10.7252 2.27535 10.7252H10.7248V2.27563C10.7248 1.01877 11.7438 0 13.0005 0C14.2567 0.000339629 15.2748 1.01809 15.2755 2.27478V10.7252H23.7258C24.9822 10.7259 25.9994 11.7439 26 13.0003Z" fill="white"/>
</svg>
