<svg width="25" height="25" viewBox="0 0 25 25" fill="none" xmlns="http://www.w3.org/2000/svg">
<path d="M24.5914 20.9498L16.1351 12.4613L24.6107 4.08242C24.9588 3.73438 24.9588 3.16719 24.6107 2.81914L22.2002 0.395706C22.0326 0.228128 21.807 0.137894 21.5685 0.137894C21.3301 0.137894 21.1045 0.234573 20.9369 0.395706L12.5 8.74883L4.05018 0.402152C3.8826 0.234574 3.65702 0.144339 3.41854 0.144339C3.18007 0.144339 2.95448 0.241019 2.7869 0.402152L0.3828 2.82559C0.0347534 3.17364 0.0347534 3.74082 0.3828 4.08887L8.85839 12.4678L0.408582 20.9498C0.241004 21.1174 0.144324 21.343 0.144324 21.5814C0.144324 21.8199 0.234558 22.0455 0.408582 22.2131L2.81913 24.6365C2.99315 24.8105 3.21874 24.9008 3.45077 24.9008C3.67635 24.9008 3.90839 24.817 4.08241 24.6365L12.5 16.1803L20.924 24.6301C21.098 24.8041 21.3236 24.8943 21.5556 24.8943C21.7812 24.8943 22.0133 24.8105 22.1873 24.6301L24.5978 22.2066C24.7654 22.0391 24.8621 21.8135 24.8621 21.575C24.8556 21.343 24.759 21.1174 24.5914 20.9498Z" fill="white"/>
</svg>
