<svg width="49" height="53" viewBox="0 0 49 53" fill="none" xmlns="http://www.w3.org/2000/svg">
<path d="M2.71835 28.7394H9.88789C11.0017 28.7394 11.9083 27.9866 11.9083 26.8736C11.9083 25.7618 11.0024 25.007 9.88789 25.007H2.71726C1.60386 25.007 0.698059 25.7613 0.698059 26.8736C0.698059 27.9866 1.60464 28.7394 2.71835 28.7394ZM2.71835 26.5H9.8868C10.1779 26.5 10.4153 26.5836 10.4153 26.8736C10.4153 27.1635 10.1786 27.2464 9.88789 27.2464H2.71835C2.42759 27.2464 2.19097 27.1636 2.19097 26.8736C2.19097 26.5835 2.42837 26.5 2.71835 26.5Z" fill="white"/>
<path d="M11.9082 37.6975C11.9082 36.5857 11.0023 35.831 9.88785 35.831H2.71683C1.60381 35.831 0.697937 36.586 0.697937 37.6975C0.697937 38.8109 1.60451 39.5634 2.71831 39.5634H9.88785C11.0016 39.5634 11.9082 38.8109 11.9082 37.6975ZM2.19093 37.6975C2.19093 37.4074 2.42833 37.3239 2.71831 37.3239H9.88638C10.1779 37.3239 10.4152 37.4074 10.4152 37.6975C10.4152 37.9876 10.1786 38.0705 9.88785 38.0705H2.71831C2.42755 38.0705 2.19093 37.988 2.19093 37.6975Z" fill="white"/>
<path d="M2.71831 17.169H9.88785C9.88863 17.169 9.88941 17.169 9.89011 17.169C11.0027 17.169 11.9082 16.4128 11.9082 15.3028C11.9082 14.1921 11.0027 13.4366 9.88785 13.4366H2.71644C1.60343 13.4366 0.697937 14.1921 0.697937 15.3028C0.698015 16.4128 1.6035 17.169 2.71831 17.169ZM2.71831 14.9295H9.88599C10.1778 14.9295 10.4152 15.0128 10.4152 15.3027C10.4152 15.592 10.1778 15.6759 9.88638 15.6759H2.72057C2.42872 15.6759 2.19093 15.5923 2.19093 15.3027C2.19093 15.0131 2.42872 14.9295 2.71831 14.9295Z" fill="white"/>
<path d="M40.3169 0H11.4726C7.53009 0 3.51331 3.8977 3.51331 7.84059V12.0179C3.51331 12.4303 3.9944 12.6901 4.40681 12.6901H9.8882C11.2707 12.6901 12.3957 13.92 12.3957 15.3024C12.3953 16.6838 11.27 17.9154 9.88781 17.9154H4.40681C3.99479 17.9154 3.51331 18.1133 3.51331 18.5257V23.6349C3.51331 24.0473 3.9944 24.2605 4.40681 24.2605H9.8882C11.2707 24.2605 12.3957 25.4907 12.3957 26.8732C12.3957 28.2542 11.2703 29.4859 9.8882 29.4859H4.40681C3.99479 29.4859 3.51331 29.7293 3.51331 30.1416V34.4768C3.51331 34.8893 3.9944 35.0844 4.40681 35.0844H9.8882C11.2707 35.0844 12.3957 36.3146 12.3957 37.6972C12.3957 39.0782 11.2703 40.3098 9.8882 40.3098H4.40681C3.99479 40.3098 3.51331 40.5711 3.51331 40.9836V45.16C3.51331 49.1026 7.53009 53 11.4726 53H40.3169C44.2605 53 48.3019 49.1026 48.3019 45.16V7.84059C48.302 3.8977 44.2609 0 40.3169 0ZM46.809 45.16C46.809 48.2901 43.4479 51.5069 40.3169 51.5069H11.4726C8.34224 51.5069 5.00622 48.2902 5.00622 45.16V41.8027H9.88859C12.0937 41.8027 13.8882 39.9008 13.8882 37.6972C13.8882 35.4917 12.0937 33.5915 9.88781 33.5915H5.00622V30.9789H9.88859C12.0941 30.9789 13.8882 29.0765 13.8882 26.8733C13.8882 24.6678 12.0937 22.7676 9.88781 22.7676H5.00622V19.4084H9.88859C12.0941 19.4084 13.8882 17.5061 13.8882 15.3024C13.8882 13.0969 12.0937 11.1972 9.88781 11.1972H5.00622V7.84066C5.00622 4.71031 8.34224 1.49299 11.4726 1.49299H40.3169C43.4479 1.49299 46.809 4.71031 46.809 7.84066V45.16Z" fill="white"/>
<path d="M35.6992 31.9079C35.2577 31.1434 34.4325 30.6683 33.5456 30.6683C33.1123 30.6683 32.6846 30.7829 32.3094 30.9993C31.6278 31.3924 31.1195 31.605 30.3876 31.605C30.2117 31.605 30.0236 31.592 29.8296 31.5663C28.7875 31.4271 27.3628 30.036 26.1991 28.0231C25.0525 26.0371 24.5195 24.0029 24.904 23.0743C25.341 22.0121 25.927 21.6101 26.6477 21.1951C27.8328 20.5128 28.2418 18.9929 27.5588 17.8061L25.8248 14.8056C25.3906 14.0502 24.6102 13.599 23.7368 13.599C23.2949 13.599 22.8549 13.7181 22.4648 13.9435L21.3779 14.5698C19.9097 15.4178 19.4573 16.9302 19.1873 18.4362C18.6118 21.5957 19.702 25.6808 22.3401 30.251C24.9408 34.7516 28.0137 37.8189 30.994 38.8894C31.9603 39.2358 32.79 39.4036 33.5295 39.4036C34.2457 39.4036 34.888 39.242 35.4393 38.9237L36.5228 38.2973C37.7072 37.6143 38.1152 36.0949 37.4321 34.9091L35.6992 31.9079ZM35.7768 37.0044L34.6926 37.6311C33.9644 38.052 32.9477 38.0031 31.4984 37.4837C28.8892 36.5468 26.0223 33.6382 23.6336 29.5041C21.1747 25.2451 20.1453 21.5101 20.657 18.7015C20.9436 17.1032 21.355 16.3071 22.1242 15.8634L23.2111 15.2366C23.3753 15.1418 23.5574 15.0918 23.7373 15.0918C24.0744 15.0918 24.3637 15.2583 24.5316 15.5509L26.266 18.5517C26.5381 19.0243 26.375 19.6297 25.9025 19.9014C25.0358 20.4007 24.1379 21.0132 23.5242 22.5047C22.9397 23.9163 23.4559 26.2584 24.9067 28.77C26.3354 31.243 28.1024 32.8417 29.6334 33.0462C29.8932 33.0805 30.1471 33.0981 30.3877 33.0981C31.56 33.0981 32.3484 32.7002 33.0553 32.2927C33.2038 32.2071 33.3737 32.1613 33.5453 32.1613C33.9003 32.1613 34.2303 32.3506 34.406 32.6543L36.139 35.6544C36.4113 36.1266 36.249 36.732 35.7768 37.0044Z" fill="white"/>
</svg>
